<?xml version="1.0" encoding="utf-8"?>
<!-- Generator: Adobe Illustrator 25.0.1, SVG Export Plug-In . SVG Version: 6.00 Build 0)  -->
<svg version="1.1" id="Layer_1" xmlns="http://www.w3.org/2000/svg" xmlns:xlink="http://www.w3.org/1999/xlink" x="0px" y="0px"
	 viewBox="0 0 1920 1080" style="enable-background:new 0 0 1920 1080;" xml:space="preserve">
<style type="text/css">
	.st0{fill:url(#SVGID_1_);}
	.st1{fill:url(#SVGID_2_);}
	.st2{fill-rule:evenodd;clip-rule:evenodd;fill:#2E3191;}
	.st3{fill-rule:evenodd;clip-rule:evenodd;fill:#EB008B;}
</style>
<g>
	<g>
		<linearGradient id="SVGID_1_" gradientUnits="userSpaceOnUse" x1="696.5804" y1="720.84" x2="752.655" y2="559.2132">
			<stop  offset="0" style="stop-color:#EC297B"/>
			<stop  offset="0.1051" style="stop-color:#E3297C"/>
			<stop  offset="0.28" style="stop-color:#C92A7F"/>
			<stop  offset="0.5031" style="stop-color:#A02C84"/>
			<stop  offset="0.7628" style="stop-color:#672F8A"/>
			<stop  offset="0.9944" style="stop-color:#2E3191"/>
		</linearGradient>
		<path class="st0" d="M883.7,575.5l-26.5-15.3c-4.8-2.8-10.7-2.8-15.5,0l-104.1,60.4c-10.3,6-23.2-1.5-23.2-13.4V480.1
			c0-18,18.5-23.4,36.2-13.1l-78.8-75.7l-14.8,11.5v83.3v19.1v201.5c0,11.9,12.9,19.3,23.2,13.4l203.6-117.8
			C894,596.3,894,581.4,883.7,575.5z"/>
		<linearGradient id="SVGID_2_" gradientUnits="userSpaceOnUse" x1="734.3514" y1="456.4257" x2="968.0039" y2="604.9152">
			<stop  offset="0.2376" style="stop-color:#EC297B"/>
			<stop  offset="0.2935" style="stop-color:#E3297C"/>
			<stop  offset="0.3864" style="stop-color:#C92A7F"/>
			<stop  offset="0.5049" style="stop-color:#A02C84"/>
			<stop  offset="0.6428" style="stop-color:#672F8A"/>
			<stop  offset="0.7658" style="stop-color:#2E3191"/>
		</linearGradient>
		<path class="st1" d="M968.8,526.6L680.1,359.9c-10.3-6-23.2,1.5-23.2,13.4v29.4v44.1v39.3c0-29.7,22.7-45.4,47-42.5
			c5.6,0.7,10.9,2.7,15.8,5.5l132,76.2l0,0l75.1,43.4c4.8,2.8,10.7,2.8,15.5,0l26.5-15.3C979.1,547.5,979.1,532.6,968.8,526.6z"/>
	</g>
	<g>
		<path class="st2" d="M1119.5,573.6v-7.4c-3.9,5.6-9.1,8.4-15.7,8.4c-2.9,0-5.6-0.6-8.2-1.7c-2.5-1.1-4.4-2.5-5.6-4.2
			c-1.2-1.7-2.1-3.8-2.6-6.2c-0.3-1.7-0.5-4.3-0.5-7.8v-30.7h8.4v27.4c0,4.4,0.2,7.3,0.5,8.8c0.5,2.2,1.6,3.9,3.4,5.2
			c1.7,1.3,3.8,1.9,6.3,1.9c2.5,0,4.9-0.6,7.1-1.9c2.2-1.3,3.8-3.1,4.7-5.3c0.9-2.2,1.4-5.4,1.4-9.7v-26.5h8.4v49.5H1119.5z
			 M1078.9,566.2l1.1,7.4c-2.4,0.5-4.5,0.7-6.3,0.7c-3,0-5.4-0.5-7.1-1.4c-1.7-1-2.8-2.2-3.5-3.8c-0.7-1.6-1-4.9-1-9.9v-28.5h-6.2
			v-6.5h6.2v-12.2l8.4-5v17.3h8.4v6.5h-8.4v29c0,2.4,0.1,3.9,0.4,4.6c0.3,0.7,0.8,1.2,1.4,1.6c0.7,0.4,1.6,0.6,2.9,0.6
			C1076.1,566.5,1077.4,566.4,1078.9,566.2z M1009.6,558.9l8.3-1.3c0.5,3.3,1.8,5.9,3.9,7.7c2.1,1.8,5.1,2.7,8.9,2.7
			c3.9,0,6.7-0.8,8.6-2.4c1.9-1.6,2.8-3.4,2.8-5.5c0-1.9-0.8-3.4-2.5-4.5c-1.2-0.7-4-1.7-8.6-2.8c-6.1-1.5-10.4-2.9-12.8-4
			c-2.4-1.1-4.2-2.7-5.4-4.7c-1.2-2-1.8-4.2-1.8-6.6c0-2.2,0.5-4.2,1.5-6.1c1-1.9,2.4-3.4,4.1-4.7c1.3-1,3.1-1.8,5.3-2.4
			c2.3-0.7,4.7-1,7.2-1c3.9,0,7.3,0.6,10.2,1.7c2.9,1.1,5.1,2.6,6.5,4.5c1.4,1.9,2.4,4.5,2.9,7.7l-8.2,1.1c-0.4-2.6-1.4-4.6-3.2-6
			c-1.8-1.4-4.3-2.2-7.6-2.2c-3.8,0-6.6,0.6-8.2,1.9c-1.6,1.3-2.5,2.8-2.5,4.5c0,1.1,0.3,2.1,1,2.9c0.7,0.9,1.7,1.6,3.2,2.2
			c0.8,0.3,3.3,1,7.4,2.1c5.9,1.6,10.1,2.9,12.4,3.9c2.4,1,4.2,2.5,5.5,4.4c1.4,1.9,2,4.3,2,7.2c0,2.8-0.8,5.4-2.4,7.9
			c-1.6,2.5-4,4.4-7.1,5.7c-3.1,1.4-6.6,2-10.5,2c-6.4,0-11.3-1.3-14.7-4C1012.7,568,1010.5,564.1,1009.6,558.9z"/>
		<path class="st2" d="M1143.9,548.9c0,6.3,1.3,11.1,4,14.2c2.7,3.1,5.8,4.7,9.5,4.7c3.7,0,6.8-1.5,9.4-4.5c2.6-3,3.8-7.6,3.8-13.7
			c0-6.7-1.3-11.7-3.9-14.9c-2.6-3.2-5.8-4.7-9.7-4.7c-3.7,0-6.9,1.5-9.4,4.5C1145.2,537.6,1143.9,542.4,1143.9,548.9 M1170.4,573.6
			v-6.3c-3.1,4.9-7.7,7.3-13.8,7.3c-3.9,0-7.6-1.1-10.9-3.3c-3.3-2.2-5.9-5.2-7.7-9.1c-1.8-3.9-2.7-8.4-2.7-13.4
			c0-4.9,0.8-9.4,2.5-13.4c1.7-4,4.1-7.1,7.4-9.2c3.3-2.1,7-3.2,11-3.2c3,0,5.6,0.6,8,1.9c2.3,1.3,4.2,2.9,5.7,4.9v-24.6h8.4v68.3
			H1170.4z"/>
		<path class="st2" d="M1196.9,573.6v-49.5h8.4v49.5H1196.9z M1196.9,514.8v-9.5h8.4v9.5H1196.9z"/>
		<path class="st3" d="M1225.3,548.9c0,6.3,1.4,11.1,4.2,14.2c2.8,3.2,6.3,4.7,10.5,4.7c4.2,0,7.6-1.6,10.4-4.7
			c2.8-3.2,4.2-8,4.2-14.5c0-6.1-1.4-10.7-4.2-13.9c-2.8-3.1-6.3-4.7-10.4-4.7c-4.2,0-7.7,1.6-10.5,4.7
			C1226.6,537.9,1225.3,542.6,1225.3,548.9 M1216.7,548.9c0-9.1,2.5-15.9,7.7-20.3c4.2-3.7,9.4-5.5,15.6-5.5
			c6.8,0,12.4,2.2,16.7,6.7c4.3,4.4,6.5,10.6,6.5,18.4c0,6.4-1,11.4-2.9,15c-1.9,3.6-4.7,6.5-8.4,8.5c-3.6,2-7.6,3-11.9,3
			c-6.9,0-12.5-2.2-16.8-6.7C1218.8,563.6,1216.7,557.2,1216.7,548.9z"/>
	</g>
</g>
</svg>
